<svg xmlns="http://www.w3.org/2000/svg" xmlns:xlink="http://www.w3.org/1999/xlink" width="1000" zoomAndPan="magnify" viewBox="0 0 750 262.499992" height="350" preserveAspectRatio="xMidYMid meet" version="1.0"><defs><g/><clipPath id="3f1f2b8602"><path d="M 42.222656 78.601562 L 192.6875 78.601562 L 192.6875 183.402344 L 42.222656 183.402344 Z M 42.222656 78.601562 " clip-rule="nonzero"/></clipPath><clipPath id="c1228e8d20"><path d="M 139.246094 136.214844 L 175.925781 136.214844 L 175.925781 183.375 L 139.246094 183.375 Z M 139.246094 136.214844 " clip-rule="nonzero"/></clipPath></defs><g clip-path="url(#3f1f2b8602)"><path fill="#000000" d="M 192.464844 135.371094 C 192.464844 137.75 191.753906 140.441406 189.609375 141.777344 C 189.375 141.917969 189.132812 142.03125 188.886719 142.160156 L 139.363281 166.546875 C 128.867188 171.710938 118.363281 176.890625 107.871094 182.054688 C 107.324219 182.320312 106.792969 182.621094 106.210938 182.820312 C 104.609375 183.390625 102.902344 183.050781 101.417969 182.320312 L 42.976562 153.546875 C 42.78125 153.453125 42.628906 153.304688 42.523438 153.117188 C 42.222656 152.570312 42.398438 151.703125 42.976562 151.410156 L 46.480469 149.683594 L 46.480469 143.996094 C 46.480469 143.367188 46.957031 142.8125 47.597656 142.8125 C 48.234375 142.8125 48.710938 143.367188 48.710938 143.996094 L 48.710938 149.589844 L 103.785156 176.714844 C 104.191406 176.910156 104.574219 177.226562 104.785156 177.644531 C 104.957031 177.992188 105.003906 178.433594 104.75 178.757812 C 104.402344 179.164062 103.832031 179.070312 103.414062 178.863281 L 47.679688 151.410156 L 45.519531 152.480469 L 102.335938 180.464844 C 103.390625 180.984375 104.703125 181.300781 105.804688 180.742188 C 107.441406 179.917969 107.882812 177.65625 107.882812 175.996094 C 107.882812 174.035156 107.347656 172.015625 106.546875 170.238281 C 105.410156 167.707031 103.390625 164.945312 100.859375 163.703125 L 63.453125 145.269531 L 63.453125 151.15625 L 56.535156 142.066406 L 50.554688 144.785156 L 50.554688 138.898438 C 47.746094 137.355469 45.53125 134.394531 44.253906 131.539062 C 43.335938 129.484375 42.746094 127.1875 42.746094 124.925781 C 42.746094 122.847656 43.265625 120.546875 44.855469 119.097656 C 45.148438 118.832031 45.4375 118.597656 45.773438 118.402344 C 46.121094 118.191406 46.503906 118.019531 46.867188 117.84375 L 71.296875 105.808594 L 125.234375 79.226562 C 125.886719 78.902344 126.6875 78.703125 127.40625 78.671875 C 128.566406 78.613281 129.714844 78.9375 130.75 79.449219 L 189.191406 108.234375 C 189.921875 108.59375 189.921875 110.019531 189.191406 110.367188 L 187.960938 110.972656 L 187.960938 116.855469 C 187.960938 117.484375 187.484375 118.042969 186.847656 118.042969 C 186.207031 118.042969 185.730469 117.484375 185.730469 116.855469 L 185.730469 112.074219 L 110.980469 148.894531 C 110.167969 149.289062 109.648438 149.449219 108.941406 149.242188 L 108.941406 155.21875 C 108.941406 155.84375 108.464844 156.402344 107.824219 156.402344 C 107.1875 156.402344 106.710938 155.84375 106.710938 155.21875 L 106.710938 148.195312 L 76.625 133.386719 L 50.371094 120.457031 C 49.324219 119.933594 48.003906 119.621094 46.898438 120.175781 C 45.261719 121 44.824219 123.265625 44.824219 124.925781 C 44.824219 126.886719 45.355469 128.90625 46.15625 130.679688 C 47.085938 132.769531 48.628906 135.011719 50.554688 136.425781 L 50.554688 128.359375 C 50.554688 127.511719 50.835938 126.875 51.289062 126.539062 L 48.304688 125.074219 C 47.96875 124.914062 47.65625 124.644531 47.480469 124.308594 C 47.316406 123.996094 47.28125 123.613281 47.527344 123.335938 C 47.828125 122.972656 48.316406 123.042969 48.6875 123.230469 L 74.792969 136.089844 C 75.128906 136.253906 75.453125 136.519531 75.628906 136.855469 C 75.789062 137.167969 75.824219 137.550781 75.582031 137.832031 C 75.277344 138.191406 74.792969 138.121094 74.421875 137.9375 L 64.195312 132.910156 C 63.742188 133.246094 63.453125 133.886719 63.453125 134.742188 L 63.453125 139.15625 L 109.195312 161.683594 L 187.195312 123.265625 L 187.402344 123.472656 C 190.375 126.457031 192.464844 131.15625 192.464844 135.371094 Z M 192.464844 135.371094 " fill-opacity="1" fill-rule="evenodd"/></g><g fill="#000000" fill-opacity="1"><g transform="translate(218.478625, 127.982058)"><g><path d="M 16.265625 0 L 9.125 -23.21875 L 8.953125 -23.21875 C 9.203125 -18.5 9.328125 -15.347656 9.328125 -13.765625 L 9.328125 0 L 3.71875 0 L 3.71875 -29.609375 L 12.265625 -29.609375 L 19.28125 -6.96875 L 19.390625 -6.96875 L 26.828125 -29.609375 L 35.375 -29.609375 L 35.375 0 L 29.515625 0 L 29.515625 -14.015625 C 29.515625 -14.671875 29.523438 -15.429688 29.546875 -16.296875 C 29.566406 -17.160156 29.660156 -19.457031 29.828125 -23.1875 L 29.640625 -23.1875 L 22.015625 0 Z M 16.265625 0 "/></g></g><g transform="translate(257.578593, 127.982058)"><g><path d="M 0 -22.640625 L 6.765625 -22.640625 L 11.03125 -9.90625 C 11.394531 -8.789062 11.644531 -7.476562 11.78125 -5.96875 L 11.90625 -5.96875 C 12.050781 -7.363281 12.34375 -8.675781 12.78125 -9.90625 L 16.96875 -22.640625 L 23.59375 -22.640625 L 14.015625 2.890625 C 13.140625 5.253906 11.882812 7.023438 10.25 8.203125 C 8.625 9.378906 6.726562 9.96875 4.5625 9.96875 C 3.488281 9.96875 2.441406 9.851562 1.421875 9.625 L 1.421875 4.71875 C 2.160156 4.894531 2.96875 4.984375 3.84375 4.984375 C 4.9375 4.984375 5.890625 4.644531 6.703125 3.96875 C 7.523438 3.300781 8.164062 2.296875 8.625 0.953125 L 8.984375 -0.15625 Z M 0 -22.640625 "/></g></g><g transform="translate(281.168165, 127.982058)"><g><path d="M 24.140625 0 L 17.953125 0 L 17.953125 -13.21875 C 17.953125 -14.851562 17.660156 -16.078125 17.078125 -16.890625 C 16.503906 -17.710938 15.582031 -18.125 14.3125 -18.125 C 12.582031 -18.125 11.332031 -17.546875 10.5625 -16.390625 C 9.800781 -15.234375 9.421875 -13.320312 9.421875 -10.65625 L 9.421875 0 L 3.234375 0 L 3.234375 -22.640625 L 7.953125 -22.640625 L 8.78125 -19.75 L 9.125 -19.75 C 9.820312 -20.832031 10.773438 -21.65625 11.984375 -22.21875 C 13.191406 -22.78125 14.5625 -23.0625 16.09375 -23.0625 C 18.726562 -23.0625 20.726562 -22.347656 22.09375 -20.921875 C 23.457031 -19.503906 24.140625 -17.453125 24.140625 -14.765625 Z M 24.140625 0 "/></g></g><g transform="translate(308.422726, 127.982058)"><g><path d="M 10.40625 0.40625 C 7.75 0.40625 5.660156 -0.625 4.140625 -2.6875 C 2.617188 -4.757812 1.859375 -7.625 1.859375 -11.28125 C 1.859375 -14.988281 2.628906 -17.878906 4.171875 -19.953125 C 5.722656 -22.023438 7.851562 -23.0625 10.5625 -23.0625 C 13.414062 -23.0625 15.59375 -21.957031 17.09375 -19.75 L 17.296875 -19.75 C 16.984375 -21.425781 16.828125 -22.925781 16.828125 -24.25 L 16.828125 -31.5 L 23.015625 -31.5 L 23.015625 0 L 18.28125 0 L 17.09375 -2.9375 L 16.828125 -2.9375 C 15.421875 -0.707031 13.28125 0.40625 10.40625 0.40625 Z M 12.578125 -4.515625 C 14.148438 -4.515625 15.304688 -4.972656 16.046875 -5.890625 C 16.785156 -6.804688 17.1875 -8.363281 17.25 -10.5625 L 17.25 -11.234375 C 17.25 -13.660156 16.875 -15.398438 16.125 -16.453125 C 15.375 -17.515625 14.15625 -18.046875 12.46875 -18.046875 C 11.09375 -18.046875 10.023438 -17.457031 9.265625 -16.28125 C 8.503906 -15.113281 8.125 -13.421875 8.125 -11.203125 C 8.125 -8.972656 8.503906 -7.300781 9.265625 -6.1875 C 10.035156 -5.070312 11.140625 -4.515625 12.578125 -4.515625 Z M 12.578125 -4.515625 "/></g></g><g transform="translate(334.664859, 127.982058)"><g><path d="M 2.96875 -28.484375 C 2.96875 -30.492188 4.09375 -31.5 6.34375 -31.5 C 8.582031 -31.5 9.703125 -30.492188 9.703125 -28.484375 C 9.703125 -27.523438 9.421875 -26.78125 8.859375 -26.25 C 8.296875 -25.71875 7.457031 -25.453125 6.34375 -25.453125 C 4.09375 -25.453125 2.96875 -26.460938 2.96875 -28.484375 Z M 9.421875 0 L 3.234375 0 L 3.234375 -22.640625 L 9.421875 -22.640625 Z M 9.421875 0 "/></g></g><g transform="translate(347.320208, 127.982058)"><g><path d="M 22.9375 -22.640625 L 22.9375 -19.5 L 19.390625 -18.59375 C 20.046875 -17.570312 20.375 -16.4375 20.375 -15.1875 C 20.375 -12.757812 19.523438 -10.863281 17.828125 -9.5 C 16.128906 -8.144531 13.773438 -7.46875 10.765625 -7.46875 L 9.65625 -7.53125 L 8.75 -7.640625 C 8.113281 -7.148438 7.796875 -6.609375 7.796875 -6.015625 C 7.796875 -5.117188 8.929688 -4.671875 11.203125 -4.671875 L 15.046875 -4.671875 C 17.523438 -4.671875 19.414062 -4.140625 20.71875 -3.078125 C 22.019531 -2.015625 22.671875 -0.445312 22.671875 1.625 C 22.671875 4.269531 21.566406 6.320312 19.359375 7.78125 C 17.160156 9.238281 13.992188 9.96875 9.859375 9.96875 C 6.703125 9.96875 4.289062 9.414062 2.625 8.3125 C 0.957031 7.207031 0.125 5.664062 0.125 3.6875 C 0.125 2.320312 0.546875 1.179688 1.390625 0.265625 C 2.242188 -0.648438 3.492188 -1.304688 5.140625 -1.703125 C 4.503906 -1.972656 3.953125 -2.414062 3.484375 -3.03125 C 3.015625 -3.644531 2.78125 -4.296875 2.78125 -4.984375 C 2.78125 -5.847656 3.023438 -6.566406 3.515625 -7.140625 C 4.015625 -7.710938 4.738281 -8.273438 5.6875 -8.828125 C 4.5 -9.335938 3.554688 -10.160156 2.859375 -11.296875 C 2.171875 -12.429688 1.828125 -13.769531 1.828125 -15.3125 C 1.828125 -17.78125 2.628906 -19.6875 4.234375 -21.03125 C 5.835938 -22.382812 8.128906 -23.0625 11.109375 -23.0625 C 11.742188 -23.0625 12.5 -23.003906 13.375 -22.890625 C 14.25 -22.773438 14.804688 -22.691406 15.046875 -22.640625 Z M 5.46875 3.203125 C 5.46875 4.046875 5.875 4.710938 6.6875 5.203125 C 7.507812 5.691406 8.65625 5.9375 10.125 5.9375 C 12.332031 5.9375 14.066406 5.628906 15.328125 5.015625 C 16.585938 4.410156 17.21875 3.582031 17.21875 2.53125 C 17.21875 1.675781 16.84375 1.085938 16.09375 0.765625 C 15.351562 0.441406 14.207031 0.28125 12.65625 0.28125 L 9.453125 0.28125 C 8.316406 0.28125 7.367188 0.546875 6.609375 1.078125 C 5.847656 1.617188 5.46875 2.328125 5.46875 3.203125 Z M 7.71875 -15.234375 C 7.71875 -14.003906 7.992188 -13.03125 8.546875 -12.3125 C 9.109375 -11.59375 9.960938 -11.234375 11.109375 -11.234375 C 12.273438 -11.234375 13.128906 -11.59375 13.671875 -12.3125 C 14.210938 -13.03125 14.484375 -14.003906 14.484375 -15.234375 C 14.484375 -17.953125 13.359375 -19.3125 11.109375 -19.3125 C 8.847656 -19.3125 7.71875 -17.953125 7.71875 -15.234375 Z M 7.71875 -15.234375 "/></g></g><g transform="translate(370.747792, 127.982058)"><g><path d="M 24.140625 0 L 17.953125 0 L 17.953125 -13.21875 C 17.953125 -16.488281 16.738281 -18.125 14.3125 -18.125 C 12.582031 -18.125 11.332031 -17.535156 10.5625 -16.359375 C 9.800781 -15.179688 9.421875 -13.28125 9.421875 -10.65625 L 9.421875 0 L 3.234375 0 L 3.234375 -31.5 L 9.421875 -31.5 L 9.421875 -25.09375 C 9.421875 -24.59375 9.375 -23.414062 9.28125 -21.5625 L 9.125 -19.75 L 9.453125 -19.75 C 10.828125 -21.957031 13.015625 -23.0625 16.015625 -23.0625 C 18.671875 -23.0625 20.6875 -22.34375 22.0625 -20.90625 C 23.445312 -19.476562 24.140625 -17.429688 24.140625 -14.765625 Z M 24.140625 0 "/></g></g><g transform="translate(398.002353, 127.982058)"><g><path d="M 12.609375 -18.671875 C 11.304688 -18.671875 10.28125 -18.253906 9.53125 -17.421875 C 8.789062 -16.585938 8.367188 -15.410156 8.265625 -13.890625 L 16.921875 -13.890625 C 16.898438 -15.410156 16.503906 -16.585938 15.734375 -17.421875 C 14.960938 -18.253906 13.921875 -18.671875 12.609375 -18.671875 Z M 13.484375 0.40625 C 9.835938 0.40625 6.988281 -0.597656 4.9375 -2.609375 C 2.882812 -4.617188 1.859375 -7.46875 1.859375 -11.15625 C 1.859375 -14.945312 2.804688 -17.878906 4.703125 -19.953125 C 6.597656 -22.023438 9.222656 -23.0625 12.578125 -23.0625 C 15.773438 -23.0625 18.265625 -22.148438 20.046875 -20.328125 C 21.828125 -18.503906 22.71875 -15.988281 22.71875 -12.78125 L 22.71875 -9.78125 L 8.125 -9.78125 C 8.1875 -8.019531 8.703125 -6.644531 9.671875 -5.65625 C 10.648438 -4.675781 12.015625 -4.1875 13.765625 -4.1875 C 15.128906 -4.1875 16.414062 -4.328125 17.625 -4.609375 C 18.84375 -4.898438 20.113281 -5.351562 21.4375 -5.96875 L 21.4375 -1.1875 C 20.363281 -0.65625 19.210938 -0.257812 17.984375 0 C 16.753906 0.269531 15.253906 0.40625 13.484375 0.40625 Z M 13.484375 0.40625 "/></g></g><g transform="translate(422.503109, 127.982058)"><g><path d="M 12.78125 -4.515625 C 13.851562 -4.515625 15.148438 -4.75 16.671875 -5.21875 L 16.671875 -0.625 C 15.128906 0.0625 13.238281 0.40625 11 0.40625 C 8.53125 0.40625 6.726562 -0.21875 5.59375 -1.46875 C 4.46875 -2.71875 3.90625 -4.59375 3.90625 -7.09375 L 3.90625 -18 L 0.953125 -18 L 0.953125 -20.609375 L 4.359375 -22.671875 L 6.140625 -27.453125 L 10.078125 -27.453125 L 10.078125 -22.640625 L 16.421875 -22.640625 L 16.421875 -18 L 10.078125 -18 L 10.078125 -7.09375 C 10.078125 -6.207031 10.320312 -5.554688 10.8125 -5.140625 C 11.3125 -4.722656 11.96875 -4.515625 12.78125 -4.515625 Z M 12.78125 -4.515625 "/></g></g><g transform="translate(440.504079, 127.982058)"><g><path d="M 19.03125 -6.71875 C 19.03125 -4.394531 18.222656 -2.625 16.609375 -1.40625 C 14.992188 -0.195312 12.582031 0.40625 9.375 0.40625 C 7.726562 0.40625 6.320312 0.289062 5.15625 0.0625 C 4 -0.15625 2.914062 -0.476562 1.90625 -0.90625 L 1.90625 -6.015625 C 3.050781 -5.472656 4.34375 -5.019531 5.78125 -4.65625 C 7.21875 -4.289062 8.484375 -4.109375 9.578125 -4.109375 C 11.816406 -4.109375 12.9375 -4.753906 12.9375 -6.046875 C 12.9375 -6.535156 12.785156 -6.929688 12.484375 -7.234375 C 12.191406 -7.535156 11.679688 -7.878906 10.953125 -8.265625 C 10.222656 -8.648438 9.25 -9.101562 8.03125 -9.625 C 6.289062 -10.351562 5.007812 -11.023438 4.1875 -11.640625 C 3.375 -12.265625 2.78125 -12.976562 2.40625 -13.78125 C 2.039062 -14.582031 1.859375 -15.570312 1.859375 -16.75 C 1.859375 -18.757812 2.640625 -20.3125 4.203125 -21.40625 C 5.765625 -22.507812 7.972656 -23.0625 10.828125 -23.0625 C 13.554688 -23.0625 16.210938 -22.46875 18.796875 -21.28125 L 16.921875 -16.828125 C 15.796875 -17.316406 14.738281 -17.710938 13.75 -18.015625 C 12.757812 -18.328125 11.753906 -18.484375 10.734375 -18.484375 C 8.910156 -18.484375 8 -17.992188 8 -17.015625 C 8 -16.453125 8.289062 -15.96875 8.875 -15.5625 C 9.46875 -15.164062 10.753906 -14.566406 12.734375 -13.765625 C 14.503906 -13.054688 15.800781 -12.390625 16.625 -11.765625 C 17.445312 -11.140625 18.050781 -10.421875 18.4375 -9.609375 C 18.832031 -8.804688 19.03125 -7.84375 19.03125 -6.71875 Z M 19.03125 -6.71875 "/></g></g><g transform="translate(461.117112, 127.982058)"><g><path d="M 24.140625 0 L 17.953125 0 L 17.953125 -13.21875 C 17.953125 -16.488281 16.738281 -18.125 14.3125 -18.125 C 12.582031 -18.125 11.332031 -17.535156 10.5625 -16.359375 C 9.800781 -15.179688 9.421875 -13.28125 9.421875 -10.65625 L 9.421875 0 L 3.234375 0 L 3.234375 -31.5 L 9.421875 -31.5 L 9.421875 -25.09375 C 9.421875 -24.59375 9.375 -23.414062 9.28125 -21.5625 L 9.125 -19.75 L 9.453125 -19.75 C 10.828125 -21.957031 13.015625 -23.0625 16.015625 -23.0625 C 18.671875 -23.0625 20.6875 -22.34375 22.0625 -20.90625 C 23.445312 -19.476562 24.140625 -17.429688 24.140625 -14.765625 Z M 24.140625 0 "/></g></g><g transform="translate(488.371673, 127.982058)"><g><path d="M 17.609375 0 L 16.421875 -3.078125 L 16.265625 -3.078125 C 15.222656 -1.765625 14.148438 -0.851562 13.046875 -0.34375 C 11.953125 0.15625 10.519531 0.40625 8.75 0.40625 C 6.570312 0.40625 4.859375 -0.210938 3.609375 -1.453125 C 2.359375 -2.703125 1.734375 -4.472656 1.734375 -6.765625 C 1.734375 -9.171875 2.570312 -10.941406 4.25 -12.078125 C 5.9375 -13.222656 8.472656 -13.851562 11.859375 -13.96875 L 15.796875 -14.09375 L 15.796875 -15.078125 C 15.796875 -17.378906 14.617188 -18.53125 12.265625 -18.53125 C 10.460938 -18.53125 8.335938 -17.984375 5.890625 -16.890625 L 3.84375 -21.0625 C 6.445312 -22.425781 9.335938 -23.109375 12.515625 -23.109375 C 15.546875 -23.109375 17.867188 -22.445312 19.484375 -21.125 C 21.109375 -19.800781 21.921875 -17.785156 21.921875 -15.078125 L 21.921875 0 Z M 15.796875 -10.484375 L 13.40625 -10.40625 C 11.613281 -10.351562 10.273438 -10.03125 9.390625 -9.4375 C 8.515625 -8.84375 8.078125 -7.9375 8.078125 -6.71875 C 8.078125 -4.976562 9.078125 -4.109375 11.078125 -4.109375 C 12.503906 -4.109375 13.644531 -4.519531 14.5 -5.34375 C 15.363281 -6.164062 15.796875 -7.257812 15.796875 -8.625 Z M 15.796875 -10.484375 "/></g></g><g transform="translate(513.419141, 127.982058)"><g><path d="M 24.140625 0 L 17.953125 0 L 17.953125 -13.21875 C 17.953125 -14.851562 17.660156 -16.078125 17.078125 -16.890625 C 16.503906 -17.710938 15.582031 -18.125 14.3125 -18.125 C 12.582031 -18.125 11.332031 -17.546875 10.5625 -16.390625 C 9.800781 -15.234375 9.421875 -13.320312 9.421875 -10.65625 L 9.421875 0 L 3.234375 0 L 3.234375 -22.640625 L 7.953125 -22.640625 L 8.78125 -19.75 L 9.125 -19.75 C 9.820312 -20.832031 10.773438 -21.65625 11.984375 -22.21875 C 13.191406 -22.78125 14.5625 -23.0625 16.09375 -23.0625 C 18.726562 -23.0625 20.726562 -22.347656 22.09375 -20.921875 C 23.457031 -19.503906 24.140625 -17.453125 24.140625 -14.765625 Z M 24.140625 0 "/></g></g><g transform="translate(540.673702, 127.982058)"><g><path d="M 10.40625 0.40625 C 7.75 0.40625 5.660156 -0.625 4.140625 -2.6875 C 2.617188 -4.757812 1.859375 -7.625 1.859375 -11.28125 C 1.859375 -14.988281 2.628906 -17.878906 4.171875 -19.953125 C 5.722656 -22.023438 7.851562 -23.0625 10.5625 -23.0625 C 13.414062 -23.0625 15.59375 -21.957031 17.09375 -19.75 L 17.296875 -19.75 C 16.984375 -21.425781 16.828125 -22.925781 16.828125 -24.25 L 16.828125 -31.5 L 23.015625 -31.5 L 23.015625 0 L 18.28125 0 L 17.09375 -2.9375 L 16.828125 -2.9375 C 15.421875 -0.707031 13.28125 0.40625 10.40625 0.40625 Z M 12.578125 -4.515625 C 14.148438 -4.515625 15.304688 -4.972656 16.046875 -5.890625 C 16.785156 -6.804688 17.1875 -8.363281 17.25 -10.5625 L 17.25 -11.234375 C 17.25 -13.660156 16.875 -15.398438 16.125 -16.453125 C 15.375 -17.515625 14.15625 -18.046875 12.46875 -18.046875 C 11.09375 -18.046875 10.023438 -17.457031 9.265625 -16.28125 C 8.503906 -15.113281 8.125 -13.421875 8.125 -11.203125 C 8.125 -8.972656 8.503906 -7.300781 9.265625 -6.1875 C 10.035156 -5.070312 11.140625 -4.515625 12.578125 -4.515625 Z M 12.578125 -4.515625 "/></g></g><g transform="translate(566.915835, 127.982058)"><g><path d="M 15.828125 -23.0625 C 18.503906 -23.0625 20.597656 -22.019531 22.109375 -19.9375 C 23.617188 -17.851562 24.375 -14.992188 24.375 -11.359375 C 24.375 -7.617188 23.59375 -4.722656 22.03125 -2.671875 C 20.476562 -0.617188 18.359375 0.40625 15.671875 0.40625 C 13.015625 0.40625 10.929688 -0.554688 9.421875 -2.484375 L 8.984375 -2.484375 L 7.953125 0 L 3.234375 0 L 3.234375 -31.5 L 9.421875 -31.5 L 9.421875 -24.171875 C 9.421875 -23.242188 9.335938 -21.753906 9.171875 -19.703125 L 9.421875 -19.703125 C 10.859375 -21.941406 12.992188 -23.0625 15.828125 -23.0625 Z M 13.84375 -18.125 C 12.320312 -18.125 11.207031 -17.65625 10.5 -16.71875 C 9.800781 -15.78125 9.441406 -14.226562 9.421875 -12.0625 L 9.421875 -11.40625 C 9.421875 -8.96875 9.78125 -7.222656 10.5 -6.171875 C 11.21875 -5.117188 12.363281 -4.59375 13.9375 -4.59375 C 15.195312 -4.59375 16.203125 -5.175781 16.953125 -6.34375 C 17.703125 -7.507812 18.078125 -9.207031 18.078125 -11.4375 C 18.078125 -13.664062 17.695312 -15.335938 16.9375 -16.453125 C 16.1875 -17.566406 15.15625 -18.125 13.84375 -18.125 Z M 13.84375 -18.125 "/></g></g><g transform="translate(593.157968, 127.982058)"><g><path d="M 8.15625 -11.359375 C 8.15625 -9.117188 8.523438 -7.425781 9.265625 -6.28125 C 10.003906 -5.132812 11.203125 -4.5625 12.859375 -4.5625 C 14.503906 -4.5625 15.6875 -5.128906 16.40625 -6.265625 C 17.132812 -7.410156 17.5 -9.109375 17.5 -11.359375 C 17.5 -13.597656 17.132812 -15.273438 16.40625 -16.390625 C 15.675781 -17.515625 14.476562 -18.078125 12.8125 -18.078125 C 11.164062 -18.078125 9.976562 -17.519531 9.25 -16.40625 C 8.519531 -15.289062 8.15625 -13.609375 8.15625 -11.359375 Z M 23.8125 -11.359375 C 23.8125 -7.671875 22.835938 -4.785156 20.890625 -2.703125 C 18.953125 -0.628906 16.25 0.40625 12.78125 0.40625 C 10.601562 0.40625 8.679688 -0.0664062 7.015625 -1.015625 C 5.359375 -1.972656 4.082031 -3.34375 3.1875 -5.125 C 2.300781 -6.90625 1.859375 -8.984375 1.859375 -11.359375 C 1.859375 -15.054688 2.820312 -17.929688 4.75 -19.984375 C 6.6875 -22.035156 9.398438 -23.0625 12.890625 -23.0625 C 15.066406 -23.0625 16.984375 -22.585938 18.640625 -21.640625 C 20.304688 -20.703125 21.582031 -19.347656 22.46875 -17.578125 C 23.363281 -15.804688 23.8125 -13.734375 23.8125 -11.359375 Z M 23.8125 -11.359375 "/></g></g><g transform="translate(618.833142, 127.982058)"><g><path d="M 9.171875 -12.3125 L 11.859375 -15.75 L 18.203125 -22.640625 L 25.171875 -22.640625 L 16.171875 -12.8125 L 25.71875 0 L 18.59375 0 L 12.0625 -9.171875 L 9.421875 -7.046875 L 9.421875 0 L 3.234375 0 L 3.234375 -31.5 L 9.421875 -31.5 L 9.421875 -17.453125 L 9.09375 -12.3125 Z M 9.171875 -12.3125 "/></g></g><g transform="translate(644.548812, 127.982058)"><g><path d="M 12.609375 -18.671875 C 11.304688 -18.671875 10.28125 -18.253906 9.53125 -17.421875 C 8.789062 -16.585938 8.367188 -15.410156 8.265625 -13.890625 L 16.921875 -13.890625 C 16.898438 -15.410156 16.503906 -16.585938 15.734375 -17.421875 C 14.960938 -18.253906 13.921875 -18.671875 12.609375 -18.671875 Z M 13.484375 0.40625 C 9.835938 0.40625 6.988281 -0.597656 4.9375 -2.609375 C 2.882812 -4.617188 1.859375 -7.46875 1.859375 -11.15625 C 1.859375 -14.945312 2.804688 -17.878906 4.703125 -19.953125 C 6.597656 -22.023438 9.222656 -23.0625 12.578125 -23.0625 C 15.773438 -23.0625 18.265625 -22.148438 20.046875 -20.328125 C 21.828125 -18.503906 22.71875 -15.988281 22.71875 -12.78125 L 22.71875 -9.78125 L 8.125 -9.78125 C 8.1875 -8.019531 8.703125 -6.644531 9.671875 -5.65625 C 10.648438 -4.675781 12.015625 -4.1875 13.765625 -4.1875 C 15.128906 -4.1875 16.414062 -4.328125 17.625 -4.609375 C 18.84375 -4.898438 20.113281 -5.351562 21.4375 -5.96875 L 21.4375 -1.1875 C 20.363281 -0.65625 19.210938 -0.257812 17.984375 0 C 16.753906 0.269531 15.253906 0.40625 13.484375 0.40625 Z M 13.484375 0.40625 "/></g></g><g transform="translate(669.049569, 127.982058)"><g><path d="M 24.140625 0 L 17.953125 0 L 17.953125 -13.21875 C 17.953125 -14.851562 17.660156 -16.078125 17.078125 -16.890625 C 16.503906 -17.710938 15.582031 -18.125 14.3125 -18.125 C 12.582031 -18.125 11.332031 -17.546875 10.5625 -16.390625 C 9.800781 -15.234375 9.421875 -13.320312 9.421875 -10.65625 L 9.421875 0 L 3.234375 0 L 3.234375 -22.640625 L 7.953125 -22.640625 L 8.78125 -19.75 L 9.125 -19.75 C 9.820312 -20.832031 10.773438 -21.65625 11.984375 -22.21875 C 13.191406 -22.78125 14.5625 -23.0625 16.09375 -23.0625 C 18.726562 -23.0625 20.726562 -22.347656 22.09375 -20.921875 C 23.457031 -19.503906 24.140625 -17.453125 24.140625 -14.765625 Z M 24.140625 0 "/></g></g></g><g fill="#000000" fill-opacity="1"><g transform="translate(218.478625, 167.512703)"><g><path d="M 2.25 0 L 2.25 -18.5625 L 13.453125 -18.5625 L 13.453125 -16.5625 L 4.5 -16.5625 L 4.5 -10.296875 L 12.859375 -10.296875 L 12.859375 -8.296875 L 4.5 -8.296875 L 4.5 -2 L 13.59375 -2 L 13.59375 0 Z M 2.25 0 "/></g></g></g><g fill="#000000" fill-opacity="1"><g transform="translate(233.739565, 167.512703)"><g><path d="M 4.09375 -8.375 L 4.09375 0 L 1.953125 0 L 1.953125 -13.921875 L 4.015625 -13.921875 L 4.015625 -11.75 L 4.203125 -11.75 C 4.523438 -12.445312 5.019531 -13.007812 5.6875 -13.4375 C 6.351562 -13.875 7.210938 -14.09375 8.265625 -14.09375 C 9.671875 -14.09375 10.804688 -13.660156 11.671875 -12.796875 C 12.535156 -11.929688 12.96875 -10.613281 12.96875 -8.84375 L 12.96875 0 L 10.84375 0 L 10.84375 -8.703125 C 10.84375 -9.796875 10.554688 -10.644531 9.984375 -11.25 C 9.421875 -11.863281 8.640625 -12.171875 7.640625 -12.171875 C 6.617188 -12.171875 5.769531 -11.835938 5.09375 -11.171875 C 4.425781 -10.515625 4.09375 -9.582031 4.09375 -8.375 Z M 4.09375 -8.375 "/></g></g></g><g fill="#000000" fill-opacity="1"><g transform="translate(248.674257, 167.512703)"><g/></g></g><g fill="#000000" fill-opacity="1"><g transform="translate(255.851609, 167.512703)"><g><path d="M 7.796875 0.296875 C 6.453125 0.296875 5.296875 0 4.328125 -0.59375 C 3.359375 -1.195312 2.613281 -2.035156 2.09375 -3.109375 C 1.570312 -4.179688 1.3125 -5.425781 1.3125 -6.84375 C 1.3125 -8.269531 1.570312 -9.53125 2.09375 -10.625 C 2.613281 -11.71875 3.34375 -12.566406 4.28125 -13.171875 C 5.21875 -13.785156 6.316406 -14.09375 7.578125 -14.09375 C 8.296875 -14.09375 9.007812 -13.972656 9.71875 -13.734375 C 10.425781 -13.492188 11.066406 -13.101562 11.640625 -12.5625 C 12.222656 -12.019531 12.6875 -11.304688 13.03125 -10.421875 C 13.382812 -9.535156 13.5625 -8.441406 13.5625 -7.140625 L 13.5625 -6.234375 L 3.453125 -6.234375 C 3.503906 -4.742188 3.925781 -3.601562 4.71875 -2.8125 C 5.507812 -2.019531 6.535156 -1.625 7.796875 -1.625 C 8.628906 -1.625 9.347656 -1.804688 9.953125 -2.171875 C 10.554688 -2.535156 10.992188 -3.082031 11.265625 -3.8125 L 13.34375 -3.21875 C 13.007812 -2.175781 12.351562 -1.328125 11.375 -0.671875 C 10.394531 -0.0234375 9.203125 0.296875 7.796875 0.296875 Z M 3.453125 -8.078125 L 11.375 -8.078125 C 11.375 -9.253906 11.03125 -10.226562 10.34375 -11 C 9.65625 -11.78125 8.734375 -12.171875 7.578125 -12.171875 C 6.765625 -12.171875 6.054688 -11.976562 5.453125 -11.59375 C 4.859375 -11.21875 4.390625 -10.71875 4.046875 -10.09375 C 3.703125 -9.46875 3.503906 -8.796875 3.453125 -8.078125 Z M 3.453125 -8.078125 "/></g></g></g><g fill="#000000" fill-opacity="1"><g transform="translate(270.713808, 167.512703)"><g><path d="M 4.09375 -8.375 L 4.09375 0 L 1.953125 0 L 1.953125 -13.921875 L 4.015625 -13.921875 L 4.015625 -11.75 L 4.203125 -11.75 C 4.523438 -12.445312 5.019531 -13.007812 5.6875 -13.4375 C 6.351562 -13.875 7.210938 -14.09375 8.265625 -14.09375 C 9.671875 -14.09375 10.804688 -13.660156 11.671875 -12.796875 C 12.535156 -11.929688 12.96875 -10.613281 12.96875 -8.84375 L 12.96875 0 L 10.84375 0 L 10.84375 -8.703125 C 10.84375 -9.796875 10.554688 -10.644531 9.984375 -11.25 C 9.421875 -11.863281 8.640625 -12.171875 7.640625 -12.171875 C 6.617188 -12.171875 5.769531 -11.835938 5.09375 -11.171875 C 4.425781 -10.515625 4.09375 -9.582031 4.09375 -8.375 Z M 4.09375 -8.375 "/></g></g></g><g fill="#000000" fill-opacity="1"><g transform="translate(285.6485, 167.512703)"><g><path d="M 7.609375 0.296875 C 6.304688 0.296875 5.179688 -0.0078125 4.234375 -0.625 C 3.296875 -1.25 2.570312 -2.097656 2.0625 -3.171875 C 1.5625 -4.253906 1.3125 -5.492188 1.3125 -6.890625 C 1.3125 -8.296875 1.570312 -9.539062 2.09375 -10.625 C 2.613281 -11.71875 3.34375 -12.566406 4.28125 -13.171875 C 5.21875 -13.785156 6.316406 -14.09375 7.578125 -14.09375 C 8.554688 -14.09375 9.4375 -13.910156 10.21875 -13.546875 C 11.007812 -13.191406 11.65625 -12.6875 12.15625 -12.03125 C 12.65625 -11.375 12.960938 -10.613281 13.078125 -9.75 L 10.953125 -9.75 C 10.785156 -10.382812 10.421875 -10.945312 9.859375 -11.4375 C 9.304688 -11.925781 8.554688 -12.171875 7.609375 -12.171875 C 6.359375 -12.171875 5.347656 -11.695312 4.578125 -10.75 C 3.816406 -9.800781 3.4375 -8.535156 3.4375 -6.953125 C 3.4375 -5.347656 3.8125 -4.054688 4.5625 -3.078125 C 5.320312 -2.109375 6.335938 -1.625 7.609375 -1.625 C 8.441406 -1.625 9.15625 -1.835938 9.75 -2.265625 C 10.34375 -2.703125 10.742188 -3.300781 10.953125 -4.0625 L 13.078125 -4.0625 C 12.960938 -3.238281 12.664062 -2.5 12.1875 -1.84375 C 11.71875 -1.1875 11.09375 -0.664062 10.3125 -0.28125 C 9.539062 0.101562 8.640625 0.296875 7.609375 0.296875 Z M 7.609375 0.296875 "/></g></g></g><g fill="#000000" fill-opacity="1"><g transform="translate(299.894464, 167.512703)"><g><path d="M 3.265625 5.40625 C 2.898438 5.40625 2.570312 5.375 2.28125 5.3125 C 2 5.257812 1.804688 5.203125 1.703125 5.140625 L 2.25 3.265625 C 3.03125 3.460938 3.679688 3.457031 4.203125 3.25 C 4.722656 3.039062 5.171875 2.414062 5.546875 1.375 L 6.015625 0.078125 L 0.875 -13.921875 L 3.1875 -13.921875 L 7.03125 -2.828125 L 7.171875 -2.828125 L 11.015625 -13.921875 L 13.34375 -13.921875 L 7.359375 2.25 C 6.566406 4.351562 5.203125 5.40625 3.265625 5.40625 Z M 3.265625 5.40625 "/></g></g></g><g fill="#000000" fill-opacity="1"><g transform="translate(314.104183, 167.512703)"><g><path d="M 1.953125 0 L 1.953125 -18.5625 L 4.09375 -18.5625 L 4.09375 -7.71875 L 4.34375 -7.71875 L 10.4375 -13.921875 L 13.078125 -13.921875 L 7.203125 -7.96875 L 13.515625 0 L 10.796875 0 L 5.59375 -6.59375 L 4.09375 -5.203125 L 4.09375 0 Z M 1.953125 0 "/></g></g></g><g fill="#000000" fill-opacity="1"><g transform="translate(327.987653, 167.512703)"><g><path d="M 4.09375 -18.5625 L 4.09375 0 L 1.953125 0 L 1.953125 -18.5625 Z M 4.09375 -18.5625 "/></g></g></g><g fill="#000000" fill-opacity="1"><g transform="translate(334.041275, 167.512703)"><g><path d="M 7.609375 0.296875 C 6.347656 0.296875 5.242188 0 4.296875 -0.59375 C 3.359375 -1.195312 2.625 -2.035156 2.09375 -3.109375 C 1.570312 -4.191406 1.3125 -5.453125 1.3125 -6.890625 C 1.3125 -8.335938 1.570312 -9.597656 2.09375 -10.671875 C 2.625 -11.753906 3.359375 -12.59375 4.296875 -13.1875 C 5.242188 -13.789062 6.347656 -14.09375 7.609375 -14.09375 C 8.867188 -14.09375 9.96875 -13.789062 10.90625 -13.1875 C 11.851562 -12.59375 12.59375 -11.753906 13.125 -10.671875 C 13.65625 -9.597656 13.921875 -8.335938 13.921875 -6.890625 C 13.921875 -5.453125 13.65625 -4.191406 13.125 -3.109375 C 12.59375 -2.035156 11.851562 -1.195312 10.90625 -0.59375 C 9.96875 0 8.867188 0.296875 7.609375 0.296875 Z M 7.609375 -1.625 C 8.566406 -1.625 9.351562 -1.867188 9.96875 -2.359375 C 10.582031 -2.847656 11.035156 -3.488281 11.328125 -4.28125 C 11.628906 -5.082031 11.78125 -5.953125 11.78125 -6.890625 C 11.78125 -7.816406 11.628906 -8.679688 11.328125 -9.484375 C 11.035156 -10.285156 10.582031 -10.929688 9.96875 -11.421875 C 9.351562 -11.921875 8.566406 -12.171875 7.609375 -12.171875 C 6.648438 -12.171875 5.863281 -11.921875 5.25 -11.421875 C 4.632812 -10.929688 4.175781 -10.285156 3.875 -9.484375 C 3.582031 -8.679688 3.4375 -7.816406 3.4375 -6.890625 C 3.4375 -5.953125 3.582031 -5.082031 3.875 -4.28125 C 4.175781 -3.488281 4.632812 -2.847656 5.25 -2.359375 C 5.863281 -1.867188 6.648438 -1.625 7.609375 -1.625 Z M 7.609375 -1.625 "/></g></g></g><g fill="#000000" fill-opacity="1"><g transform="translate(349.265969, 167.512703)"><g><path d="M 1.953125 5.21875 L 1.953125 -13.921875 L 4.015625 -13.921875 L 4.015625 -11.703125 L 4.28125 -11.703125 C 4.4375 -11.941406 4.65625 -12.25 4.9375 -12.625 C 5.21875 -13.007812 5.617188 -13.347656 6.140625 -13.640625 C 6.671875 -13.941406 7.390625 -14.09375 8.296875 -14.09375 C 9.472656 -14.09375 10.503906 -13.800781 11.390625 -13.21875 C 12.285156 -12.632812 12.984375 -11.800781 13.484375 -10.71875 C 13.992188 -9.644531 14.25 -8.378906 14.25 -6.921875 C 14.25 -5.453125 13.992188 -4.175781 13.484375 -3.09375 C 12.984375 -2.019531 12.289062 -1.1875 11.40625 -0.59375 C 10.519531 0 9.5 0.296875 8.34375 0.296875 C 7.445312 0.296875 6.726562 0.144531 6.1875 -0.15625 C 5.644531 -0.457031 5.226562 -0.796875 4.9375 -1.171875 C 4.65625 -1.554688 4.4375 -1.878906 4.28125 -2.140625 L 4.09375 -2.140625 L 4.09375 5.21875 Z M 4.0625 -6.953125 C 4.0625 -5.378906 4.398438 -4.097656 5.078125 -3.109375 C 5.765625 -2.117188 6.753906 -1.625 8.046875 -1.625 C 8.941406 -1.625 9.6875 -1.859375 10.28125 -2.328125 C 10.882812 -2.804688 11.335938 -3.445312 11.640625 -4.25 C 11.953125 -5.0625 12.109375 -5.960938 12.109375 -6.953125 C 12.109375 -7.929688 11.957031 -8.816406 11.65625 -9.609375 C 11.351562 -10.398438 10.898438 -11.023438 10.296875 -11.484375 C 9.703125 -11.941406 8.953125 -12.171875 8.046875 -12.171875 C 6.742188 -12.171875 5.753906 -11.691406 5.078125 -10.734375 C 4.398438 -9.773438 4.0625 -8.515625 4.0625 -6.953125 Z M 4.0625 -6.953125 "/></g></g></g><g fill="#000000" fill-opacity="1"><g transform="translate(364.816895, 167.512703)"><g><path d="M 7.796875 0.296875 C 6.453125 0.296875 5.296875 0 4.328125 -0.59375 C 3.359375 -1.195312 2.613281 -2.035156 2.09375 -3.109375 C 1.570312 -4.179688 1.3125 -5.425781 1.3125 -6.84375 C 1.3125 -8.269531 1.570312 -9.53125 2.09375 -10.625 C 2.613281 -11.71875 3.34375 -12.566406 4.28125 -13.171875 C 5.21875 -13.785156 6.316406 -14.09375 7.578125 -14.09375 C 8.296875 -14.09375 9.007812 -13.972656 9.71875 -13.734375 C 10.425781 -13.492188 11.066406 -13.101562 11.640625 -12.5625 C 12.222656 -12.019531 12.6875 -11.304688 13.03125 -10.421875 C 13.382812 -9.535156 13.5625 -8.441406 13.5625 -7.140625 L 13.5625 -6.234375 L 3.453125 -6.234375 C 3.503906 -4.742188 3.925781 -3.601562 4.71875 -2.8125 C 5.507812 -2.019531 6.535156 -1.625 7.796875 -1.625 C 8.628906 -1.625 9.347656 -1.804688 9.953125 -2.171875 C 10.554688 -2.535156 10.992188 -3.082031 11.265625 -3.8125 L 13.34375 -3.21875 C 13.007812 -2.175781 12.351562 -1.328125 11.375 -0.671875 C 10.394531 -0.0234375 9.203125 0.296875 7.796875 0.296875 Z M 3.453125 -8.078125 L 11.375 -8.078125 C 11.375 -9.253906 11.03125 -10.226562 10.34375 -11 C 9.65625 -11.78125 8.734375 -12.171875 7.578125 -12.171875 C 6.765625 -12.171875 6.054688 -11.976562 5.453125 -11.59375 C 4.859375 -11.21875 4.390625 -10.71875 4.046875 -10.09375 C 3.703125 -9.46875 3.503906 -8.796875 3.453125 -8.078125 Z M 3.453125 -8.078125 "/></g></g></g><g fill="#000000" fill-opacity="1"><g transform="translate(379.679094, 167.512703)"><g><path d="M 7.21875 0.296875 C 6.050781 0.296875 5.023438 0 4.140625 -0.59375 C 3.253906 -1.1875 2.5625 -2.019531 2.0625 -3.09375 C 1.5625 -4.175781 1.3125 -5.453125 1.3125 -6.921875 C 1.3125 -8.378906 1.5625 -9.644531 2.0625 -10.71875 C 2.5625 -11.800781 3.253906 -12.632812 4.140625 -13.21875 C 5.035156 -13.800781 6.070312 -14.09375 7.25 -14.09375 C 8.15625 -14.09375 8.867188 -13.941406 9.390625 -13.640625 C 9.921875 -13.347656 10.328125 -13.007812 10.609375 -12.625 C 10.890625 -12.25 11.109375 -11.941406 11.265625 -11.703125 L 11.453125 -11.703125 L 11.453125 -18.5625 L 13.59375 -18.5625 L 13.59375 0 L 11.53125 0 L 11.53125 -2.140625 L 11.265625 -2.140625 C 11.109375 -1.878906 10.882812 -1.554688 10.59375 -1.171875 C 10.3125 -0.796875 9.898438 -0.457031 9.359375 -0.15625 C 8.816406 0.144531 8.101562 0.296875 7.21875 0.296875 Z M 7.5 -1.625 C 8.789062 -1.625 9.773438 -2.117188 10.453125 -3.109375 C 11.140625 -4.097656 11.484375 -5.378906 11.484375 -6.953125 C 11.484375 -8.515625 11.144531 -9.773438 10.46875 -10.734375 C 9.789062 -11.691406 8.800781 -12.171875 7.5 -12.171875 C 6.59375 -12.171875 5.835938 -11.941406 5.234375 -11.484375 C 4.640625 -11.023438 4.191406 -10.398438 3.890625 -9.609375 C 3.585938 -8.816406 3.4375 -7.929688 3.4375 -6.953125 C 3.4375 -5.960938 3.585938 -5.0625 3.890625 -4.25 C 4.203125 -3.445312 4.65625 -2.804688 5.25 -2.328125 C 5.851562 -1.859375 6.601562 -1.625 7.5 -1.625 Z M 7.5 -1.625 "/></g></g></g><g fill="#000000" fill-opacity="1"><g transform="translate(395.520022, 167.512703)"><g><path d="M 1.953125 0 L 1.953125 -13.921875 L 4.09375 -13.921875 L 4.09375 0 Z M 3.046875 -16.234375 C 2.628906 -16.234375 2.269531 -16.375 1.96875 -16.65625 C 1.664062 -16.945312 1.515625 -17.289062 1.515625 -17.6875 C 1.515625 -18.082031 1.664062 -18.421875 1.96875 -18.703125 C 2.269531 -18.992188 2.628906 -19.140625 3.046875 -19.140625 C 3.460938 -19.140625 3.816406 -18.992188 4.109375 -18.703125 C 4.410156 -18.421875 4.5625 -18.082031 4.5625 -17.6875 C 4.5625 -17.289062 4.410156 -16.945312 4.109375 -16.65625 C 3.816406 -16.375 3.460938 -16.234375 3.046875 -16.234375 Z M 3.046875 -16.234375 "/></g></g></g><g fill="#000000" fill-opacity="1"><g transform="translate(401.573644, 167.512703)"><g/></g></g><g fill="#000000" fill-opacity="1"><g transform="translate(408.750996, 167.512703)"><g><path d="M 7.609375 0.296875 C 6.347656 0.296875 5.242188 0 4.296875 -0.59375 C 3.359375 -1.195312 2.625 -2.035156 2.09375 -3.109375 C 1.570312 -4.191406 1.3125 -5.453125 1.3125 -6.890625 C 1.3125 -8.335938 1.570312 -9.597656 2.09375 -10.671875 C 2.625 -11.753906 3.359375 -12.59375 4.296875 -13.1875 C 5.242188 -13.789062 6.347656 -14.09375 7.609375 -14.09375 C 8.867188 -14.09375 9.96875 -13.789062 10.90625 -13.1875 C 11.851562 -12.59375 12.59375 -11.753906 13.125 -10.671875 C 13.65625 -9.597656 13.921875 -8.335938 13.921875 -6.890625 C 13.921875 -5.453125 13.65625 -4.191406 13.125 -3.109375 C 12.59375 -2.035156 11.851562 -1.195312 10.90625 -0.59375 C 9.96875 0 8.867188 0.296875 7.609375 0.296875 Z M 7.609375 -1.625 C 8.566406 -1.625 9.351562 -1.867188 9.96875 -2.359375 C 10.582031 -2.847656 11.035156 -3.488281 11.328125 -4.28125 C 11.628906 -5.082031 11.78125 -5.953125 11.78125 -6.890625 C 11.78125 -7.816406 11.628906 -8.679688 11.328125 -9.484375 C 11.035156 -10.285156 10.582031 -10.929688 9.96875 -11.421875 C 9.351562 -11.921875 8.566406 -12.171875 7.609375 -12.171875 C 6.648438 -12.171875 5.863281 -11.921875 5.25 -11.421875 C 4.632812 -10.929688 4.175781 -10.285156 3.875 -9.484375 C 3.582031 -8.679688 3.4375 -7.816406 3.4375 -6.890625 C 3.4375 -5.953125 3.582031 -5.082031 3.875 -4.28125 C 4.175781 -3.488281 4.632812 -2.847656 5.25 -2.359375 C 5.863281 -1.867188 6.648438 -1.625 7.609375 -1.625 Z M 5 -16.234375 C 4.625 -16.234375 4.289062 -16.378906 4 -16.671875 C 3.707031 -16.960938 3.5625 -17.300781 3.5625 -17.6875 C 3.5625 -18.101562 3.707031 -18.445312 4 -18.71875 C 4.289062 -19 4.625 -19.140625 5 -19.140625 C 5.414062 -19.140625 5.757812 -19 6.03125 -18.71875 C 6.3125 -18.445312 6.453125 -18.101562 6.453125 -17.6875 C 6.453125 -17.300781 6.3125 -16.960938 6.03125 -16.671875 C 5.757812 -16.378906 5.414062 -16.234375 5 -16.234375 Z M 10.21875 -16.234375 C 9.84375 -16.234375 9.507812 -16.378906 9.21875 -16.671875 C 8.925781 -16.960938 8.78125 -17.300781 8.78125 -17.6875 C 8.78125 -18.101562 8.925781 -18.445312 9.21875 -18.71875 C 9.507812 -19 9.84375 -19.140625 10.21875 -19.140625 C 10.632812 -19.140625 10.976562 -19 11.25 -18.71875 C 11.53125 -18.445312 11.671875 -18.101562 11.671875 -17.6875 C 11.671875 -17.300781 11.53125 -16.960938 11.25 -16.671875 C 10.976562 -16.378906 10.632812 -16.234375 10.21875 -16.234375 Z M 10.21875 -16.234375 "/></g></g></g><g fill="#000000" fill-opacity="1"><g transform="translate(423.975689, 167.512703)"><g><path d="M 13.34375 -13.921875 L 8.1875 0 L 6.015625 0 L 0.875 -13.921875 L 3.1875 -13.921875 L 7.03125 -2.828125 L 7.171875 -2.828125 L 11.015625 -13.921875 Z M 13.34375 -13.921875 "/></g></g></g><g fill="#000000" fill-opacity="1"><g transform="translate(438.185408, 167.512703)"><g><path d="M 7.796875 0.296875 C 6.453125 0.296875 5.296875 0 4.328125 -0.59375 C 3.359375 -1.195312 2.613281 -2.035156 2.09375 -3.109375 C 1.570312 -4.179688 1.3125 -5.425781 1.3125 -6.84375 C 1.3125 -8.269531 1.570312 -9.53125 2.09375 -10.625 C 2.613281 -11.71875 3.34375 -12.566406 4.28125 -13.171875 C 5.21875 -13.785156 6.316406 -14.09375 7.578125 -14.09375 C 8.296875 -14.09375 9.007812 -13.972656 9.71875 -13.734375 C 10.425781 -13.492188 11.066406 -13.101562 11.640625 -12.5625 C 12.222656 -12.019531 12.6875 -11.304688 13.03125 -10.421875 C 13.382812 -9.535156 13.5625 -8.441406 13.5625 -7.140625 L 13.5625 -6.234375 L 3.453125 -6.234375 C 3.503906 -4.742188 3.925781 -3.601562 4.71875 -2.8125 C 5.507812 -2.019531 6.535156 -1.625 7.796875 -1.625 C 8.628906 -1.625 9.347656 -1.804688 9.953125 -2.171875 C 10.554688 -2.535156 10.992188 -3.082031 11.265625 -3.8125 L 13.34375 -3.21875 C 13.007812 -2.175781 12.351562 -1.328125 11.375 -0.671875 C 10.394531 -0.0234375 9.203125 0.296875 7.796875 0.296875 Z M 3.453125 -8.078125 L 11.375 -8.078125 C 11.375 -9.253906 11.03125 -10.226562 10.34375 -11 C 9.65625 -11.78125 8.734375 -12.171875 7.578125 -12.171875 C 6.765625 -12.171875 6.054688 -11.976562 5.453125 -11.59375 C 4.859375 -11.21875 4.390625 -10.71875 4.046875 -10.09375 C 3.703125 -9.46875 3.503906 -8.796875 3.453125 -8.078125 Z M 3.453125 -8.078125 "/></g></g></g><g fill="#000000" fill-opacity="1"><g transform="translate(453.047607, 167.512703)"><g><path d="M 1.953125 0 L 1.953125 -13.921875 L 4.015625 -13.921875 L 4.015625 -11.8125 L 4.171875 -11.8125 C 4.421875 -12.5 4.875 -13.054688 5.53125 -13.484375 C 6.195312 -13.921875 6.953125 -14.140625 7.796875 -14.140625 C 8.179688 -14.140625 8.515625 -14.09375 8.796875 -14 C 9.085938 -13.90625 9.34375 -13.78125 9.5625 -13.625 L 8.84375 -11.8125 C 8.6875 -11.894531 8.507812 -11.957031 8.3125 -12 C 8.113281 -12.039062 7.878906 -12.0625 7.609375 -12.0625 C 6.597656 -12.0625 5.757812 -11.753906 5.09375 -11.140625 C 4.425781 -10.523438 4.09375 -9.75 4.09375 -8.8125 L 4.09375 0 Z M 1.953125 0 "/></g></g></g><g fill="#000000" fill-opacity="1"><g transform="translate(462.834914, 167.512703)"><g/></g></g><g fill="#000000" fill-opacity="1"><g transform="translate(470.012266, 167.512703)"><g><path d="M 11.8125 -10.796875 L 9.890625 -10.25 C 9.703125 -10.738281 9.390625 -11.191406 8.953125 -11.609375 C 8.515625 -12.035156 7.828125 -12.25 6.890625 -12.25 C 6.035156 -12.25 5.328125 -12.050781 4.765625 -11.65625 C 4.203125 -11.269531 3.921875 -10.78125 3.921875 -10.1875 C 3.921875 -9.65625 4.113281 -9.234375 4.5 -8.921875 C 4.882812 -8.617188 5.488281 -8.363281 6.3125 -8.15625 L 8.375 -7.640625 C 10.832031 -7.035156 12.0625 -5.78125 12.0625 -3.875 C 12.0625 -3.082031 11.832031 -2.367188 11.375 -1.734375 C 10.925781 -1.109375 10.289062 -0.613281 9.46875 -0.25 C 8.65625 0.113281 7.707031 0.296875 6.625 0.296875 C 5.207031 0.296875 4.035156 -0.0078125 3.109375 -0.625 C 2.179688 -1.25 1.59375 -2.148438 1.34375 -3.328125 L 3.375 -3.84375 C 3.75 -2.34375 4.820312 -1.59375 6.59375 -1.59375 C 7.59375 -1.59375 8.382812 -1.804688 8.96875 -2.234375 C 9.5625 -2.660156 9.859375 -3.171875 9.859375 -3.765625 C 9.859375 -4.753906 9.171875 -5.40625 7.796875 -5.71875 L 5.46875 -6.265625 C 4.195312 -6.566406 3.265625 -7.035156 2.671875 -7.671875 C 2.078125 -8.316406 1.78125 -9.117188 1.78125 -10.078125 C 1.78125 -10.859375 2 -11.550781 2.4375 -12.15625 C 2.882812 -12.757812 3.492188 -13.234375 4.265625 -13.578125 C 5.035156 -13.921875 5.910156 -14.09375 6.890625 -14.09375 C 8.265625 -14.09375 9.34375 -13.789062 10.125 -13.1875 C 10.914062 -12.582031 11.476562 -11.785156 11.8125 -10.796875 Z M 11.8125 -10.796875 "/></g></g></g><g fill="#000000" fill-opacity="1"><g transform="translate(483.351994, 167.512703)"><g><path d="M 13.34375 -13.921875 L 8.1875 0 L 6.015625 0 L 0.875 -13.921875 L 3.1875 -13.921875 L 7.03125 -2.828125 L 7.171875 -2.828125 L 11.015625 -13.921875 Z M 13.34375 -13.921875 "/></g></g></g><g fill="#000000" fill-opacity="1"><g transform="translate(497.561729, 167.512703)"><g><path d="M 7.796875 0.296875 C 6.453125 0.296875 5.296875 0 4.328125 -0.59375 C 3.359375 -1.195312 2.613281 -2.035156 2.09375 -3.109375 C 1.570312 -4.179688 1.3125 -5.425781 1.3125 -6.84375 C 1.3125 -8.269531 1.570312 -9.53125 2.09375 -10.625 C 2.613281 -11.71875 3.34375 -12.566406 4.28125 -13.171875 C 5.21875 -13.785156 6.316406 -14.09375 7.578125 -14.09375 C 8.296875 -14.09375 9.007812 -13.972656 9.71875 -13.734375 C 10.425781 -13.492188 11.066406 -13.101562 11.640625 -12.5625 C 12.222656 -12.019531 12.6875 -11.304688 13.03125 -10.421875 C 13.382812 -9.535156 13.5625 -8.441406 13.5625 -7.140625 L 13.5625 -6.234375 L 3.453125 -6.234375 C 3.503906 -4.742188 3.925781 -3.601562 4.71875 -2.8125 C 5.507812 -2.019531 6.535156 -1.625 7.796875 -1.625 C 8.628906 -1.625 9.347656 -1.804688 9.953125 -2.171875 C 10.554688 -2.535156 10.992188 -3.082031 11.265625 -3.8125 L 13.34375 -3.21875 C 13.007812 -2.175781 12.351562 -1.328125 11.375 -0.671875 C 10.394531 -0.0234375 9.203125 0.296875 7.796875 0.296875 Z M 3.453125 -8.078125 L 11.375 -8.078125 C 11.375 -9.253906 11.03125 -10.226562 10.34375 -11 C 9.65625 -11.78125 8.734375 -12.171875 7.578125 -12.171875 C 6.765625 -12.171875 6.054688 -11.976562 5.453125 -11.59375 C 4.859375 -11.21875 4.390625 -10.71875 4.046875 -10.09375 C 3.703125 -9.46875 3.503906 -8.796875 3.453125 -8.078125 Z M 3.453125 -8.078125 "/></g></g></g><g fill="#000000" fill-opacity="1"><g transform="translate(512.423912, 167.512703)"><g><path d="M 4.09375 -8.375 L 4.09375 0 L 1.953125 0 L 1.953125 -13.921875 L 4.015625 -13.921875 L 4.015625 -11.75 L 4.203125 -11.75 C 4.523438 -12.445312 5.019531 -13.007812 5.6875 -13.4375 C 6.351562 -13.875 7.210938 -14.09375 8.265625 -14.09375 C 9.671875 -14.09375 10.804688 -13.660156 11.671875 -12.796875 C 12.535156 -11.929688 12.96875 -10.613281 12.96875 -8.84375 L 12.96875 0 L 10.84375 0 L 10.84375 -8.703125 C 10.84375 -9.796875 10.554688 -10.644531 9.984375 -11.25 C 9.421875 -11.863281 8.640625 -12.171875 7.640625 -12.171875 C 6.617188 -12.171875 5.769531 -11.835938 5.09375 -11.171875 C 4.425781 -10.515625 4.09375 -9.582031 4.09375 -8.375 Z M 4.09375 -8.375 "/></g></g></g><g fill="#000000" fill-opacity="1"><g transform="translate(527.358587, 167.512703)"><g><path d="M 11.8125 -10.796875 L 9.890625 -10.25 C 9.703125 -10.738281 9.390625 -11.191406 8.953125 -11.609375 C 8.515625 -12.035156 7.828125 -12.25 6.890625 -12.25 C 6.035156 -12.25 5.328125 -12.050781 4.765625 -11.65625 C 4.203125 -11.269531 3.921875 -10.78125 3.921875 -10.1875 C 3.921875 -9.65625 4.113281 -9.234375 4.5 -8.921875 C 4.882812 -8.617188 5.488281 -8.363281 6.3125 -8.15625 L 8.375 -7.640625 C 10.832031 -7.035156 12.0625 -5.78125 12.0625 -3.875 C 12.0625 -3.082031 11.832031 -2.367188 11.375 -1.734375 C 10.925781 -1.109375 10.289062 -0.613281 9.46875 -0.25 C 8.65625 0.113281 7.707031 0.296875 6.625 0.296875 C 5.207031 0.296875 4.035156 -0.0078125 3.109375 -0.625 C 2.179688 -1.25 1.59375 -2.148438 1.34375 -3.328125 L 3.375 -3.84375 C 3.75 -2.34375 4.820312 -1.59375 6.59375 -1.59375 C 7.59375 -1.59375 8.382812 -1.804688 8.96875 -2.234375 C 9.5625 -2.660156 9.859375 -3.171875 9.859375 -3.765625 C 9.859375 -4.753906 9.171875 -5.40625 7.796875 -5.71875 L 5.46875 -6.265625 C 4.195312 -6.566406 3.265625 -7.035156 2.671875 -7.671875 C 2.078125 -8.316406 1.78125 -9.117188 1.78125 -10.078125 C 1.78125 -10.859375 2 -11.550781 2.4375 -12.15625 C 2.882812 -12.757812 3.492188 -13.234375 4.265625 -13.578125 C 5.035156 -13.921875 5.910156 -14.09375 6.890625 -14.09375 C 8.265625 -14.09375 9.34375 -13.789062 10.125 -13.1875 C 10.914062 -12.582031 11.476562 -11.785156 11.8125 -10.796875 Z M 11.8125 -10.796875 "/></g></g></g><g fill="#000000" fill-opacity="1"><g transform="translate(540.698299, 167.512703)"><g><path d="M 1.953125 0 L 1.953125 -18.5625 L 4.09375 -18.5625 L 4.09375 -7.71875 L 4.34375 -7.71875 L 10.4375 -13.921875 L 13.078125 -13.921875 L 7.203125 -7.96875 L 13.515625 0 L 10.796875 0 L 5.59375 -6.59375 L 4.09375 -5.203125 L 4.09375 0 Z M 1.953125 0 "/></g></g></g><g fill="#000000" fill-opacity="1"><g transform="translate(554.58177, 167.512703)"><g><path d="M 6.046875 0.328125 C 5.171875 0.328125 4.375 0.160156 3.65625 -0.171875 C 2.9375 -0.503906 2.363281 -0.988281 1.9375 -1.625 C 1.519531 -2.269531 1.3125 -3.046875 1.3125 -3.953125 C 1.3125 -4.742188 1.46875 -5.390625 1.78125 -5.890625 C 2.09375 -6.390625 2.507812 -6.78125 3.03125 -7.0625 C 3.5625 -7.351562 4.144531 -7.566406 4.78125 -7.703125 C 5.414062 -7.847656 6.054688 -7.960938 6.703125 -8.046875 C 7.546875 -8.148438 8.234375 -8.226562 8.765625 -8.28125 C 9.296875 -8.34375 9.679688 -8.441406 9.921875 -8.578125 C 10.171875 -8.722656 10.296875 -8.96875 10.296875 -9.3125 L 10.296875 -9.390625 C 10.296875 -10.285156 10.050781 -10.976562 9.5625 -11.46875 C 9.070312 -11.96875 8.335938 -12.21875 7.359375 -12.21875 C 6.335938 -12.21875 5.535156 -11.992188 4.953125 -11.546875 C 4.378906 -11.097656 3.972656 -10.617188 3.734375 -10.109375 L 1.703125 -10.84375 C 2.066406 -11.6875 2.550781 -12.34375 3.15625 -12.8125 C 3.757812 -13.289062 4.421875 -13.625 5.140625 -13.8125 C 5.867188 -14 6.582031 -14.09375 7.28125 -14.09375 C 7.726562 -14.09375 8.242188 -14.039062 8.828125 -13.9375 C 9.410156 -13.832031 9.972656 -13.613281 10.515625 -13.28125 C 11.066406 -12.957031 11.523438 -12.46875 11.890625 -11.8125 C 12.253906 -11.15625 12.4375 -10.273438 12.4375 -9.171875 L 12.4375 0 L 10.296875 0 L 10.296875 -1.890625 L 10.1875 -1.890625 C 10.039062 -1.585938 9.796875 -1.265625 9.453125 -0.921875 C 9.117188 -0.578125 8.671875 -0.28125 8.109375 -0.03125 C 7.546875 0.207031 6.859375 0.328125 6.046875 0.328125 Z M 6.375 -1.59375 C 7.21875 -1.59375 7.929688 -1.757812 8.515625 -2.09375 C 9.097656 -2.425781 9.539062 -2.851562 9.84375 -3.375 C 10.144531 -3.90625 10.296875 -4.457031 10.296875 -5.03125 L 10.296875 -7 C 10.203125 -6.882812 10 -6.78125 9.6875 -6.6875 C 9.382812 -6.601562 9.035156 -6.53125 8.640625 -6.46875 C 8.253906 -6.40625 7.875 -6.351562 7.5 -6.3125 C 7.125 -6.269531 6.820312 -6.234375 6.59375 -6.203125 C 6.039062 -6.128906 5.523438 -6.007812 5.046875 -5.84375 C 4.566406 -5.6875 4.175781 -5.445312 3.875 -5.125 C 3.582031 -4.8125 3.4375 -4.382812 3.4375 -3.84375 C 3.4375 -3.101562 3.710938 -2.539062 4.265625 -2.15625 C 4.816406 -1.78125 5.519531 -1.59375 6.375 -1.59375 Z M 6.375 -1.59375 "/></g></g></g><g fill="#000000" fill-opacity="1"><g transform="translate(568.972719, 167.512703)"><g/></g></g><g fill="#000000" fill-opacity="1"><g transform="translate(576.150087, 167.512703)"><g><path d="M 11.8125 -10.796875 L 9.890625 -10.25 C 9.703125 -10.738281 9.390625 -11.191406 8.953125 -11.609375 C 8.515625 -12.035156 7.828125 -12.25 6.890625 -12.25 C 6.035156 -12.25 5.328125 -12.050781 4.765625 -11.65625 C 4.203125 -11.269531 3.921875 -10.78125 3.921875 -10.1875 C 3.921875 -9.65625 4.113281 -9.234375 4.5 -8.921875 C 4.882812 -8.617188 5.488281 -8.363281 6.3125 -8.15625 L 8.375 -7.640625 C 10.832031 -7.035156 12.0625 -5.78125 12.0625 -3.875 C 12.0625 -3.082031 11.832031 -2.367188 11.375 -1.734375 C 10.925781 -1.109375 10.289062 -0.613281 9.46875 -0.25 C 8.65625 0.113281 7.707031 0.296875 6.625 0.296875 C 5.207031 0.296875 4.035156 -0.0078125 3.109375 -0.625 C 2.179688 -1.25 1.59375 -2.148438 1.34375 -3.328125 L 3.375 -3.84375 C 3.75 -2.34375 4.820312 -1.59375 6.59375 -1.59375 C 7.59375 -1.59375 8.382812 -1.804688 8.96875 -2.234375 C 9.5625 -2.660156 9.859375 -3.171875 9.859375 -3.765625 C 9.859375 -4.753906 9.171875 -5.40625 7.796875 -5.71875 L 5.46875 -6.265625 C 4.195312 -6.566406 3.265625 -7.035156 2.671875 -7.671875 C 2.078125 -8.316406 1.78125 -9.117188 1.78125 -10.078125 C 1.78125 -10.859375 2 -11.550781 2.4375 -12.15625 C 2.882812 -12.757812 3.492188 -13.234375 4.265625 -13.578125 C 5.035156 -13.921875 5.910156 -14.09375 6.890625 -14.09375 C 8.265625 -14.09375 9.34375 -13.789062 10.125 -13.1875 C 10.914062 -12.582031 11.476562 -11.785156 11.8125 -10.796875 Z M 11.8125 -10.796875 "/></g></g></g><g fill="#000000" fill-opacity="1"><g transform="translate(589.489799, 167.512703)"><g><path d="M 8.015625 -13.921875 L 8.015625 -12.109375 L 5.03125 -12.109375 L 5.03125 -3.984375 C 5.03125 -3.378906 5.117188 -2.925781 5.296875 -2.625 C 5.484375 -2.332031 5.71875 -2.132812 6 -2.03125 C 6.28125 -1.9375 6.578125 -1.890625 6.890625 -1.890625 C 7.117188 -1.890625 7.304688 -1.898438 7.453125 -1.921875 C 7.609375 -1.953125 7.734375 -1.976562 7.828125 -2 L 8.265625 -0.078125 C 8.117188 -0.015625 7.914062 0.0390625 7.65625 0.09375 C 7.394531 0.15625 7.066406 0.1875 6.671875 0.1875 C 6.066406 0.1875 5.472656 0.0546875 4.890625 -0.203125 C 4.316406 -0.460938 3.84375 -0.859375 3.46875 -1.390625 C 3.09375 -1.921875 2.90625 -2.59375 2.90625 -3.40625 L 2.90625 -12.109375 L 0.796875 -12.109375 L 0.796875 -13.921875 L 2.90625 -13.921875 L 2.90625 -17.25 L 5.03125 -17.25 L 5.03125 -13.921875 Z M 8.015625 -13.921875 "/></g></g></g><g fill="#000000" fill-opacity="1"><g transform="translate(598.76961, 167.512703)"><g><path d="M 6.046875 0.328125 C 5.171875 0.328125 4.375 0.160156 3.65625 -0.171875 C 2.9375 -0.503906 2.363281 -0.988281 1.9375 -1.625 C 1.519531 -2.269531 1.3125 -3.046875 1.3125 -3.953125 C 1.3125 -4.742188 1.46875 -5.390625 1.78125 -5.890625 C 2.09375 -6.390625 2.507812 -6.78125 3.03125 -7.0625 C 3.5625 -7.351562 4.144531 -7.566406 4.78125 -7.703125 C 5.414062 -7.847656 6.054688 -7.960938 6.703125 -8.046875 C 7.546875 -8.148438 8.234375 -8.226562 8.765625 -8.28125 C 9.296875 -8.34375 9.679688 -8.441406 9.921875 -8.578125 C 10.171875 -8.722656 10.296875 -8.96875 10.296875 -9.3125 L 10.296875 -9.390625 C 10.296875 -10.285156 10.050781 -10.976562 9.5625 -11.46875 C 9.070312 -11.96875 8.335938 -12.21875 7.359375 -12.21875 C 6.335938 -12.21875 5.535156 -11.992188 4.953125 -11.546875 C 4.378906 -11.097656 3.972656 -10.617188 3.734375 -10.109375 L 1.703125 -10.84375 C 2.066406 -11.6875 2.550781 -12.34375 3.15625 -12.8125 C 3.757812 -13.289062 4.421875 -13.625 5.140625 -13.8125 C 5.867188 -14 6.582031 -14.09375 7.28125 -14.09375 C 7.726562 -14.09375 8.242188 -14.039062 8.828125 -13.9375 C 9.410156 -13.832031 9.972656 -13.613281 10.515625 -13.28125 C 11.066406 -12.957031 11.523438 -12.46875 11.890625 -11.8125 C 12.253906 -11.15625 12.4375 -10.273438 12.4375 -9.171875 L 12.4375 0 L 10.296875 0 L 10.296875 -1.890625 L 10.1875 -1.890625 C 10.039062 -1.585938 9.796875 -1.265625 9.453125 -0.921875 C 9.117188 -0.578125 8.671875 -0.28125 8.109375 -0.03125 C 7.546875 0.207031 6.859375 0.328125 6.046875 0.328125 Z M 6.375 -1.59375 C 7.21875 -1.59375 7.929688 -1.757812 8.515625 -2.09375 C 9.097656 -2.425781 9.539062 -2.851562 9.84375 -3.375 C 10.144531 -3.90625 10.296875 -4.457031 10.296875 -5.03125 L 10.296875 -7 C 10.203125 -6.882812 10 -6.78125 9.6875 -6.6875 C 9.382812 -6.601562 9.035156 -6.53125 8.640625 -6.46875 C 8.253906 -6.40625 7.875 -6.351562 7.5 -6.3125 C 7.125 -6.269531 6.820312 -6.234375 6.59375 -6.203125 C 6.039062 -6.128906 5.523438 -6.007812 5.046875 -5.84375 C 4.566406 -5.6875 4.175781 -5.445312 3.875 -5.125 C 3.582031 -4.8125 3.4375 -4.382812 3.4375 -3.84375 C 3.4375 -3.101562 3.710938 -2.539062 4.265625 -2.15625 C 4.816406 -1.78125 5.519531 -1.59375 6.375 -1.59375 Z M 6.375 -1.59375 "/></g></g></g><g fill="#000000" fill-opacity="1"><g transform="translate(613.16056, 167.512703)"><g><path d="M 8.015625 -13.921875 L 8.015625 -12.109375 L 5.03125 -12.109375 L 5.03125 -3.984375 C 5.03125 -3.378906 5.117188 -2.925781 5.296875 -2.625 C 5.484375 -2.332031 5.71875 -2.132812 6 -2.03125 C 6.28125 -1.9375 6.578125 -1.890625 6.890625 -1.890625 C 7.117188 -1.890625 7.304688 -1.898438 7.453125 -1.921875 C 7.609375 -1.953125 7.734375 -1.976562 7.828125 -2 L 8.265625 -0.078125 C 8.117188 -0.015625 7.914062 0.0390625 7.65625 0.09375 C 7.394531 0.15625 7.066406 0.1875 6.671875 0.1875 C 6.066406 0.1875 5.472656 0.0546875 4.890625 -0.203125 C 4.316406 -0.460938 3.84375 -0.859375 3.46875 -1.390625 C 3.09375 -1.921875 2.90625 -2.59375 2.90625 -3.40625 L 2.90625 -12.109375 L 0.796875 -12.109375 L 0.796875 -13.921875 L 2.90625 -13.921875 L 2.90625 -17.25 L 5.03125 -17.25 L 5.03125 -13.921875 Z M 8.015625 -13.921875 "/></g></g></g><g fill="#000000" fill-opacity="1"><g transform="translate(622.440371, 167.512703)"><g><path d="M 7.796875 0.296875 C 6.453125 0.296875 5.296875 0 4.328125 -0.59375 C 3.359375 -1.195312 2.613281 -2.035156 2.09375 -3.109375 C 1.570312 -4.179688 1.3125 -5.425781 1.3125 -6.84375 C 1.3125 -8.269531 1.570312 -9.53125 2.09375 -10.625 C 2.613281 -11.71875 3.34375 -12.566406 4.28125 -13.171875 C 5.21875 -13.785156 6.316406 -14.09375 7.578125 -14.09375 C 8.296875 -14.09375 9.007812 -13.972656 9.71875 -13.734375 C 10.425781 -13.492188 11.066406 -13.101562 11.640625 -12.5625 C 12.222656 -12.019531 12.6875 -11.304688 13.03125 -10.421875 C 13.382812 -9.535156 13.5625 -8.441406 13.5625 -7.140625 L 13.5625 -6.234375 L 3.453125 -6.234375 C 3.503906 -4.742188 3.925781 -3.601562 4.71875 -2.8125 C 5.507812 -2.019531 6.535156 -1.625 7.796875 -1.625 C 8.628906 -1.625 9.347656 -1.804688 9.953125 -2.171875 C 10.554688 -2.535156 10.992188 -3.082031 11.265625 -3.8125 L 13.34375 -3.21875 C 13.007812 -2.175781 12.351562 -1.328125 11.375 -0.671875 C 10.394531 -0.0234375 9.203125 0.296875 7.796875 0.296875 Z M 3.453125 -8.078125 L 11.375 -8.078125 C 11.375 -9.253906 11.03125 -10.226562 10.34375 -11 C 9.65625 -11.78125 8.734375 -12.171875 7.578125 -12.171875 C 6.765625 -12.171875 6.054688 -11.976562 5.453125 -11.59375 C 4.859375 -11.21875 4.390625 -10.71875 4.046875 -10.09375 C 3.703125 -9.46875 3.503906 -8.796875 3.453125 -8.078125 Z M 3.453125 -8.078125 "/></g></g></g><g fill="#000000" fill-opacity="1"><g transform="translate(637.302554, 167.512703)"><g><path d="M 4.09375 -8.375 L 4.09375 0 L 1.953125 0 L 1.953125 -13.921875 L 4.015625 -13.921875 L 4.015625 -11.75 L 4.203125 -11.75 C 4.523438 -12.445312 5.019531 -13.007812 5.6875 -13.4375 C 6.351562 -13.875 7.210938 -14.09375 8.265625 -14.09375 C 9.671875 -14.09375 10.804688 -13.660156 11.671875 -12.796875 C 12.535156 -11.929688 12.96875 -10.613281 12.96875 -8.84375 L 12.96875 0 L 10.84375 0 L 10.84375 -8.703125 C 10.84375 -9.796875 10.554688 -10.644531 9.984375 -11.25 C 9.421875 -11.863281 8.640625 -12.171875 7.640625 -12.171875 C 6.617188 -12.171875 5.769531 -11.835938 5.09375 -11.171875 C 4.425781 -10.515625 4.09375 -9.582031 4.09375 -8.375 Z M 4.09375 -8.375 "/></g></g></g><g fill="#000000" fill-opacity="1"><g transform="translate(652.242226, 167.512703)"><g/></g></g><path fill="#fefefe" d="M 152.160156 181.382812 L 152.160156 176.765625 L 150.09375 176.765625 L 150.09375 172.65625 L 148.027344 172.65625 L 148.027344 168.550781 L 145.960938 168.550781 L 145.960938 163.933594 L 143.378906 163.933594 L 143.378906 161.878906 L 141.3125 161.878906 L 141.3125 157.773438 L 145.960938 157.773438 L 145.960938 159.828125 L 148.027344 159.828125 L 148.027344 165.984375 L 150.09375 165.984375 L 150.09375 138.269531 L 154.226562 138.269531 L 154.226562 157.773438 L 156.292969 157.773438 L 156.292969 149.046875 L 160.945312 149.046875 L 160.945312 157.773438 L 163.011719 157.773438 L 163.011719 151.101562 L 167.144531 151.101562 L 167.144531 159.828125 L 169.210938 159.828125 L 169.210938 153.15625 L 171.792969 153.15625 L 171.792969 155.722656 L 173.859375 155.722656 L 173.859375 170.605469 L 171.792969 170.605469 L 171.792969 176.765625 L 169.210938 176.765625 L 169.210938 181.382812 Z M 152.160156 181.382812 " fill-opacity="1" fill-rule="nonzero"/><g clip-path="url(#c1228e8d20)"><path fill="#000000" d="M 150.09375 183.4375 L 150.09375 176.765625 L 148.027344 176.765625 L 148.027344 172.65625 L 145.960938 172.65625 L 145.960938 168.550781 L 143.378906 168.550781 L 143.378906 163.933594 L 141.3125 163.933594 L 141.3125 161.878906 L 139.246094 161.878906 L 139.246094 155.722656 L 145.960938 155.722656 L 145.960938 157.773438 L 148.027344 157.773438 L 148.027344 138.269531 L 150.09375 138.269531 L 150.09375 136.21875 L 154.226562 136.21875 L 154.226562 138.269531 L 156.292969 138.269531 L 156.292969 146.996094 L 160.945312 146.996094 L 160.945312 149.046875 L 167.144531 149.046875 L 167.144531 151.101562 L 171.792969 151.101562 L 171.792969 153.15625 L 173.859375 153.15625 L 173.859375 155.722656 L 175.925781 155.722656 L 175.925781 170.605469 L 173.859375 170.605469 L 173.859375 176.765625 L 171.792969 176.765625 L 171.792969 183.4375 Z M 169.210938 181.382812 L 169.210938 176.765625 L 171.792969 176.765625 L 171.792969 170.605469 L 173.859375 170.605469 L 173.859375 155.722656 L 171.792969 155.722656 L 171.792969 153.15625 L 169.210938 153.15625 L 169.210938 159.828125 L 167.144531 159.828125 L 167.144531 151.101562 L 163.011719 151.101562 L 163.011719 157.773438 L 160.945312 157.773438 L 160.945312 149.046875 L 156.292969 149.046875 L 156.292969 157.773438 L 154.226562 157.773438 L 154.226562 138.269531 L 150.09375 138.269531 L 150.09375 165.984375 L 148.027344 165.984375 L 148.027344 159.828125 L 145.960938 159.828125 L 145.960938 157.773438 L 141.3125 157.773438 L 141.3125 161.878906 L 143.378906 161.878906 L 143.378906 163.933594 L 145.960938 163.933594 L 145.960938 168.550781 L 148.027344 168.550781 L 148.027344 172.65625 L 150.09375 172.65625 L 150.09375 176.765625 L 152.160156 176.765625 L 152.160156 181.382812 Z M 169.210938 181.382812 " fill-opacity="1" fill-rule="nonzero"/></g></svg>