<svg xmlns="http://www.w3.org/2000/svg" xmlns:xlink="http://www.w3.org/1999/xlink" width="60" zoomAndPan="magnify" viewBox="0 0 45 44.999999" height="60" preserveAspectRatio="xMidYMid meet" version="1.0"><defs><clipPath id="1fa639b950"><path d="M 4.5 4.5 L 40.5 4.5 L 40.5 40 L 4.5 40 Z M 4.5 4.5 " clip-rule="nonzero"/></clipPath></defs><g clip-path="url(#1fa639b950)"><path fill="#ffffff" d="M 22.5 4.5 C 12.5625 4.5 4.5 12.558594 4.5 22.5 C 4.5 30.453125 9.65625 37.199219 16.808594 39.582031 C 17.710938 39.746094 18 39.1875 18 38.714844 L 18 35.363281 C 12.992188 36.453125 11.949219 33.238281 11.949219 33.238281 C 11.132812 31.160156 9.949219 30.605469 9.949219 30.605469 C 8.316406 29.488281 10.074219 29.511719 10.074219 29.511719 C 11.882812 29.636719 12.835938 31.367188 12.835938 31.367188 C 14.4375 34.117188 17.042969 33.324219 18.070312 32.863281 C 18.234375 31.699219 18.699219 30.90625 19.214844 30.457031 C 15.21875 30 11.015625 28.457031 11.015625 21.5625 C 11.015625 19.59375 11.71875 17.988281 12.867188 16.730469 C 12.683594 16.273438 12.066406 14.445312 13.042969 11.964844 C 13.042969 11.964844 14.554688 11.484375 17.996094 13.808594 C 19.429688 13.410156 20.96875 13.210938 22.5 13.203125 C 24.03125 13.210938 25.570312 13.410156 27.007812 13.808594 C 30.445312 11.484375 31.953125 11.964844 31.953125 11.964844 C 32.933594 14.445312 32.316406 16.277344 32.132812 16.730469 C 33.285156 17.988281 33.984375 19.597656 33.984375 21.5625 C 33.984375 28.472656 29.773438 29.996094 25.765625 30.441406 C 26.410156 31 27 32.09375 27 33.777344 L 27 38.714844 C 27 39.195312 27.289062 39.757812 28.203125 39.578125 C 35.347656 37.195312 40.5 30.449219 40.5 22.5 C 40.5 12.558594 32.441406 4.5 22.5 4.5 Z M 22.5 4.5 " fill-opacity="1" fill-rule="nonzero"/></g></svg>